<svg height="492pt" viewBox="0 -145 492.00027 492" width="492pt" xmlns="http://www.w3.org/2000/svg">
    <path fill="#fff" d="m99.347656 49.738281c-6.21875 0-11.261718 5.042969-11.261718 11.261719s5.042968 11.261719 11.261718 11.261719c6.222656 0 11.265625-5.042969 11.265625-11.261719-.007812-6.21875-5.046875-11.253906-11.265625-11.261719zm0 12c-.40625 0-.734375-.332031-.734375-.738281s.328125-.738281.734375-.738281c.410156 0 .738282.332031.738282.738281s-.332032.738281-.738282.738281zm0 0"/>
    <path fill="#fff" d="m152.675781 49.738281c-6.222656 0-11.265625 5.042969-11.265625 11.261719.003906 6.222656 5.046875 11.261719 11.265625 11.261719s11.261719-5.042969 11.261719-11.261719c-.007812-6.21875-5.046875-11.257812-11.261719-11.261719zm0 12c-.410156 0-.738281-.332031-.738281-.738281s.328125-.738281.738281-.738281c.40625 0 .734375.332031.734375.738281s-.328125.738281-.734375.738281zm0 0"/>
    <path fill="#fff" d="m206 49.738281c-6.21875 0-11.261719 5.042969-11.261719 11.261719s5.042969 11.261719 11.261719 11.261719 11.261719-5.042969 11.261719-11.261719c-.007813-6.21875-5.042969-11.253906-11.261719-11.261719zm0 12c-.40625 0-.738281-.332031-.738281-.738281s.332031-.738281.738281-.738281.738281.332031.738281.738281-.332031.738281-.738281.738281zm0 0"/>
    <path fill="#fff" d="m259.324219 49.738281c-6.21875 0-11.261719 5.042969-11.261719 11.261719s5.042969 11.261719 11.261719 11.261719c6.222656 0 11.265625-5.042969 11.265625-11.261719-.007813-6.21875-5.046875-11.253906-11.265625-11.261719zm0 12c-.40625 0-.734375-.332031-.734375-.738281-.003906-.40625.328125-.738281.734375-.738281s.738281.332031.738281.738281-.332031.734375-.738281.738281zm0 0"/>
    <path fill="#fff" d="m323.914062 61c0-6.21875-5.042968-11.261719-11.261718-11.261719-6.222656 0-11.265625 5.042969-11.265625 11.261719s5.042969 11.261719 11.265625 11.261719c6.214844-.003907 11.253906-5.042969 11.261718-11.261719zm-12 0c0-.40625.328126-.738281.738282-.738281.40625 0 .734375.332031.734375.738281s-.328125.738281-.734375.738281-.738282-.332031-.738282-.738281zm0 0"/>
    <path fill="#fff" d="m46.023438 49.738281c-6.21875 0-11.261719 5.042969-11.261719 11.261719 0 6.222656 5.042969 11.261719 11.261719 11.261719 6.222656 0 11.261718-5.042969 11.261718-11.261719-.003906-6.21875-5.042968-11.257812-11.261718-11.261719zm0 12c-.40625 0-.738282-.332031-.738282-.738281s.332032-.738281.738282-.738281.738281.332031.738281.738281-.332031.738281-.738281.738281zm0 0"/>
    <path fill="#fff" d="m412 30.234375v-14.234375c-.011719-8.832031-7.167969-15.9882812-16-16h-380c-8.832031.0117188-15.9882812 7.167969-16 16v90c.0117188 8.832031 7.167969 15.988281 16 16h304.234375c3.199219 45.824219 41.851563 81.042969 87.773437 79.976562 45.925782-1.066406 82.902344-38.042968 83.96875-83.96875 1.066407-45.921874-34.152343-84.574218-79.976562-87.773437zm-400 75.765625v-90c0-2.210938 1.789062-4 4-4h380c2.210938 0 4 1.789062 4 4v14.234375c-42.730469 3.042969-76.722656 37.035156-79.765625 79.765625h-304.234375c-2.210938 0-4-1.789062-4-4zm394 84c-40.867188 0-74-33.128906-74-74 0-40.867188 33.132812-74 74-74s74 33.132812 74 74c-.046875 40.851562-33.148438 73.953125-74 74zm0 0"/>
    <path fill="#fff" d="m411.121094 112.9375h-10.242188c-19.804687.023438-35.855468 16.074219-35.878906 35.878906v22.003906c0 3.316407 2.6875 6 6 6h70c3.3125 0 6-2.683593 6-6v-22.003906c-.023438-19.804687-16.074219-35.855468-35.878906-35.878906zm23.878906 51.882812h-58v-16.003906c.011719-13.183594 10.695312-23.867187 23.878906-23.878906h10.242188c13.183594.011719 23.867187 10.695312 23.878906 23.878906zm0 0"/>
    <path fill="#fff" d="m406 107.726562c14.511719.003907 26.277344-11.761718 26.277344-26.273437s-11.765625-26.273437-26.277344-26.273437-26.273438 11.761718-26.273438 26.273437c.011719 14.503906 11.769532 26.261719 26.273438 26.273437zm0-40.546874c7.882812 0 14.277344 6.390624 14.277344 14.273437 0 7.886719-6.390625 14.277344-14.277344 14.277344-7.882812 0-14.273438-6.394531-14.273438-14.277344.007813-7.878906 6.394532-14.265625 14.273438-14.273437zm0 0"/>
</svg>
